<?xml version="1.0" encoding="UTF-8"?>
<svg id="Layer_2" data-name="Layer 2" xmlns="http://www.w3.org/2000/svg" xmlns:xlink="http://www.w3.org/1999/xlink" viewBox="0 0 314.26 201.56">
  <defs>
    <style>
      .cls-1 {
        fill: url(#linear-gradient);
      }

      .cls-1, .cls-2, .cls-3, .cls-4, .cls-5 {
        stroke-width: 0px;
      }

      .cls-2 {
        fill: url(#linear-gradient-5);
      }

      .cls-3 {
        fill: url(#linear-gradient-2);
      }

      .cls-4 {
        fill: url(#linear-gradient-3);
      }

      .cls-5 {
        fill: url(#linear-gradient-4);
      }
    </style>
    <linearGradient id="linear-gradient" x1="144.68" y1="217.71" x2="144.68" y2="-15.22" gradientUnits="userSpaceOnUse">
      <stop offset="0" stop-color="#f9efef"/>
      <stop offset=".3" stop-color="#e1d8d8"/>
      <stop offset=".94" stop-color="#a69e9e"/>
      <stop offset="1" stop-color="#a09898"/>
    </linearGradient>
    <linearGradient id="linear-gradient-2" x1="-746.04" y1="136.85" x2="-580.8" y2="190.75" gradientTransform="translate(-426.47) rotate(-180) scale(1 -1)" gradientUnits="userSpaceOnUse">
      <stop offset=".43" stop-color="#f9efef"/>
      <stop offset=".56" stop-color="#eae0e0"/>
      <stop offset=".8" stop-color="#c3baba"/>
      <stop offset="1" stop-color="#a09898"/>
    </linearGradient>
    <linearGradient id="linear-gradient-3" x1="35.55" y1="64.43" x2="117.33" y2="64.43" gradientUnits="userSpaceOnUse">
      <stop offset="0" stop-color="#665d5d"/>
      <stop offset=".63" stop-color="#423f3f"/>
      <stop offset="1" stop-color="#323232"/>
    </linearGradient>
    <linearGradient id="linear-gradient-4" x1="35.58" y1="116.9" x2="117.36" y2="116.9" xlink:href="#linear-gradient-3"/>
    <linearGradient id="linear-gradient-5" x1="35.46" y1="90.68" x2="247.83" y2="90.68" xlink:href="#linear-gradient-3"/>
  </defs>
  <g id="Layer_1-2" data-name="Layer 1">
    <rect class="cls-1" width="289.36" height="181.33" rx="25.73" ry="25.73"/>
    <path class="cls-3" d="M289.13,109.07c17.42,11.11,27.04,30.66,24.81,50.22-2.15,18.88-15.41,38.49-32.44,41.78-30.92,5.96-53.5-45.89-79.78-38.22-19.39,5.66-19.19,37.41-36.44,38.67-11.95.87-25.64-13.37-26.67-26.67-1.73-22.39,31.91-49.17,60.22-46.67,37.89,3.35,59.42,58.51,75.78,51.11,5.17-2.34,12.69-12.22,14.22-23.03.26-1.84.31-3.41.29-4.53v-42.67Z"/>
    <g>
      <path class="cls-4" d="M39.87,80.1l52.24-52.24c5.77-5.77,15.12-5.77,20.89,0h0c5.77,5.77,5.77,15.12,0,20.89l-52.24,52.24c-5.77,5.77-15.12,5.77-20.89,0h0c-5.77-5.77-5.77-15.12,0-20.89Z"/>
      <path class="cls-5" d="M60.8,80.34l52.24,52.24c5.77,5.77,5.77,15.12,0,20.89h0c-5.77,5.77-15.12,5.77-20.89,0l-52.24-52.24c-5.77-5.77-5.77-15.12,0-20.89h0c5.77-5.77,15.12-5.77,20.89,0Z"/>
      <path class="cls-2" d="M56.7,75.91h169.89c11.73,0,21.24,6.61,21.24,14.77h0c0,8.16-9.51,14.77-21.24,14.77H56.7c-11.73,0-21.24-6.61-21.24-14.77h0c0-8.16,9.51-14.77,21.24-14.77Z"/>
    </g>
  </g>
</svg>