<?xml version="1.0" encoding="UTF-8"?>
<svg id="Layer_2" data-name="Layer 2" xmlns="http://www.w3.org/2000/svg" xmlns:xlink="http://www.w3.org/1999/xlink" viewBox="0 0 314.26 232.5">
  <defs>
    <style>
      .cls-1 {
        fill: url(#linear-gradient);
      }

      .cls-1, .cls-2, .cls-3, .cls-4, .cls-5, .cls-6, .cls-7, .cls-8, .cls-9, .cls-10 {
        stroke-width: 0px;
      }

      .cls-2 {
        fill: url(#linear-gradient-6);
      }

      .cls-3 {
        fill: url(#linear-gradient-5);
      }

      .cls-4 {
        fill: url(#linear-gradient-2);
      }

      .cls-5 {
        fill: url(#linear-gradient-7);
      }

      .cls-6 {
        fill: url(#linear-gradient-3);
      }

      .cls-7 {
        fill: url(#linear-gradient-9);
      }

      .cls-8 {
        fill: url(#linear-gradient-8);
      }

      .cls-9 {
        fill: url(#linear-gradient-10);
      }

      .cls-10 {
        fill: url(#linear-gradient-4);
      }
    </style>
    <linearGradient id="linear-gradient" x1="49.86" y1="75.11" x2="49.86" y2="-7.81" gradientTransform="translate(-14.71 47.4) rotate(-45)" gradientUnits="userSpaceOnUse">
      <stop offset="0" stop-color="#f9efef"/>
      <stop offset=".28" stop-color="#d5cccc"/>
      <stop offset=".57" stop-color="#b8afaf"/>
      <stop offset=".82" stop-color="#a69e9e"/>
      <stop offset="1" stop-color="#a09898"/>
    </linearGradient>
    <linearGradient id="linear-gradient-2" x1="118.01" y1="71.98" x2="118.01" y2="-10.94" gradientTransform="translate(5.25 95.59) rotate(-45)" xlink:href="#linear-gradient"/>
    <linearGradient id="linear-gradient-3" x1="144.68" y1="248.65" x2="144.68" y2="15.73" gradientUnits="userSpaceOnUse">
      <stop offset="0" stop-color="#f9efef"/>
      <stop offset=".3" stop-color="#e1d8d8"/>
      <stop offset=".94" stop-color="#a69e9e"/>
      <stop offset="1" stop-color="#a09898"/>
    </linearGradient>
    <linearGradient id="linear-gradient-4" x1="-746.04" y1="167.79" x2="-580.8" y2="221.69" gradientTransform="translate(-426.47) rotate(-180) scale(1 -1)" gradientUnits="userSpaceOnUse">
      <stop offset=".43" stop-color="#f9efef"/>
      <stop offset=".56" stop-color="#eae0e0"/>
      <stop offset=".8" stop-color="#c3baba"/>
      <stop offset="1" stop-color="#a09898"/>
    </linearGradient>
    <linearGradient id="linear-gradient-5" x1="35.55" y1="95.38" x2="117.33" y2="95.38" gradientUnits="userSpaceOnUse">
      <stop offset="0" stop-color="#665d5d"/>
      <stop offset=".63" stop-color="#423f3f"/>
      <stop offset="1" stop-color="#323232"/>
    </linearGradient>
    <linearGradient id="linear-gradient-6" x1="35.58" y1="147.84" x2="117.36" y2="147.84" xlink:href="#linear-gradient-5"/>
    <linearGradient id="linear-gradient-7" x1="35.46" y1="121.63" x2="247.83" y2="121.63" xlink:href="#linear-gradient-5"/>
    <linearGradient id="linear-gradient-8" x1="155.92" y1="23.48" x2="155.92" y2="71.23" gradientUnits="userSpaceOnUse">
      <stop offset="0" stop-color="#665d5d"/>
      <stop offset=".21" stop-color="#4f4a4a"/>
      <stop offset=".43" stop-color="#3e3c3c"/>
      <stop offset=".68" stop-color="#353434"/>
      <stop offset="1" stop-color="#323232"/>
    </linearGradient>
    <linearGradient id="linear-gradient-9" x1="233.38" y1="20.71" x2="233.38" y2="86.07" xlink:href="#linear-gradient-8"/>
    <linearGradient id="linear-gradient-10" x1="279.59" y1="45.29" x2="279.59" y2="78.64" xlink:href="#linear-gradient-8"/>
  </defs>
  <g id="Layer_1-2" data-name="Layer 1">
    <rect class="cls-1" x="20.54" y="12.14" width="58.63" height="58.63" transform="translate(43.92 -23.11) rotate(45)"/>
    <rect class="cls-4" x="88.69" y="12.14" width="58.63" height="58.63" transform="translate(63.88 -71.3) rotate(45)"/>
    <rect class="cls-6" y="30.94" width="289.36" height="181.33" rx="25.73" ry="25.73"/>
    <path class="cls-10" d="M289.13,140.01c17.42,11.11,27.04,30.66,24.81,50.22-2.15,18.88-15.41,38.49-32.44,41.78-30.92,5.96-53.5-45.89-79.78-38.22-19.39,5.66-19.19,37.41-36.44,38.67-11.95.87-25.64-13.37-26.67-26.67-1.73-22.39,31.91-49.17,60.22-46.67,37.89,3.35,59.42,58.51,75.78,51.11,5.17-2.34,12.69-12.22,14.22-23.03.26-1.84.31-3.41.29-4.53v-42.67Z"/>
    <g>
      <path class="cls-3" d="M39.87,111.05l52.24-52.24c5.77-5.77,15.12-5.77,20.89,0h0c5.77,5.77,5.77,15.12,0,20.89l-52.24,52.24c-5.77,5.77-15.12,5.77-20.89,0h0c-5.77-5.77-5.77-15.12,0-20.89Z"/>
      <path class="cls-2" d="M60.8,111.28l52.24,52.24c5.77,5.77,5.77,15.12,0,20.89h0c-5.77,5.77-15.12,5.77-20.89,0l-52.24-52.24c-5.77-5.77-5.77-15.12,0-20.89h0c5.77-5.77,15.12-5.77,20.89,0Z"/>
      <path class="cls-5" d="M56.7,106.85h169.89c11.73,0,21.24,6.61,21.24,14.77h0c0,8.16-9.51,14.77-21.24,14.77H56.7c-11.73,0-21.24-6.61-21.24-14.77h0c0-8.16,9.51-14.77,21.24-14.77Z"/>
    </g>
    <path class="cls-8" d="M141.64,30.94c-2.19.6-8.92,2.75-11.79,8.74-4.32,9.04,2.89,21.12,11.79,25.83,12.37,6.54,29.41-.44,30.86-7.44.95-4.56-4.92-8.28-3.13-11.74,2.17-4.19,12.08-1.33,13.7-4.87.69-1.52-.05-4.42-6.65-10.52h-34.78Z"/>
    <path class="cls-7" d="M209.09,38.11c-1.94,1.7-10.47,9.17-8.61,14.35,2.41,6.7,19.31,1.44,25.92,10.96,4.34,6.25-.43,12.14,3.56,15.91,6.46,6.1,29.7.8,35.35-14.84,4.2-11.62-3.66-22.52-4.04-23.03-8.31-11.15-21.91-10.58-22.96-10.52h-14.62c-3.17.66-9.09,2.35-14.59,7.17Z"/>
    <path class="cls-9" d="M289.27,54.66c-.58-.59-5-4.98-10.36-4.03-6.56,1.16-9.61,9.44-9,15.26.46,4.35,3.18,9.4,6.13,9.52,2.57.11,3.58-3.6,6.65-3.78,2.67-.16,5.04,2.47,6.66,4.83-.03-7.27-.05-14.53-.08-21.8Z"/>
  </g>
</svg>