<?xml version="1.0" encoding="UTF-8"?>
<svg id="Layer_2" data-name="Layer 2" xmlns="http://www.w3.org/2000/svg" xmlns:xlink="http://www.w3.org/1999/xlink" viewBox="0 0 458.79 232.5">
  <defs>
    <style>
      .cls-1 {
        fill: url(#linear-gradient);
      }

      .cls-1, .cls-2, .cls-3, .cls-4, .cls-5, .cls-6, .cls-7, .cls-8, .cls-9 {
        stroke-width: 0px;
      }

      .cls-2 {
        fill: url(#linear-gradient-6);
      }

      .cls-10 {
        clip-path: url(#clippath-2);
      }

      .cls-3 {
        fill: url(#linear-gradient-5);
      }

      .cls-4 {
        fill: none;
      }

      .cls-11 {
        clip-path: url(#clippath-1);
      }

      .cls-5 {
        fill: url(#linear-gradient-2);
      }

      .cls-6 {
        fill: url(#linear-gradient-7);
      }

      .cls-7 {
        fill: url(#linear-gradient-3);
      }

      .cls-12 {
        clip-path: url(#clippath);
      }

      .cls-8 {
        fill: url(#linear-gradient-4);
      }

      .cls-9 {
        fill: #d8d8d8;
      }
    </style>
    <linearGradient id="linear-gradient" x1="111.69" y1="75.11" x2="111.69" y2="-7.81" gradientTransform="translate(3.4 91.12) rotate(-45)" gradientUnits="userSpaceOnUse">
      <stop offset="0" stop-color="#938a8a"/>
      <stop offset=".02" stop-color="#8f8787"/>
      <stop offset=".23" stop-color="#787373"/>
      <stop offset=".45" stop-color="#676565"/>
      <stop offset=".69" stop-color="#5e5d5d"/>
      <stop offset="1" stop-color="#5b5b5b"/>
    </linearGradient>
    <linearGradient id="linear-gradient-2" x1="179.84" y1="71.98" x2="179.84" y2="-10.94" gradientTransform="translate(23.36 139.31) rotate(-45)" xlink:href="#linear-gradient"/>
    <linearGradient id="linear-gradient-3" x1="206.5" y1="248.65" x2="206.5" y2="15.73" gradientUnits="userSpaceOnUse">
      <stop offset="0" stop-color="#938a8a"/>
      <stop offset=".08" stop-color="#807a7a"/>
      <stop offset=".18" stop-color="#6f6c6c"/>
      <stop offset=".31" stop-color="#636262"/>
      <stop offset=".49" stop-color="#5c5c5c"/>
      <stop offset="1" stop-color="#5b5b5b"/>
    </linearGradient>
    <linearGradient id="linear-gradient-4" x1="-672.09" y1="186.26" x2="-496.38" y2="186.26" gradientTransform="translate(-296) rotate(-180) scale(1 -1)" gradientUnits="userSpaceOnUse">
      <stop offset="0" stop-color="#665d5d"/>
      <stop offset=".21" stop-color="#4f4a4a"/>
      <stop offset=".43" stop-color="#3e3c3c"/>
      <stop offset=".68" stop-color="#353434"/>
      <stop offset="1" stop-color="#323232"/>
    </linearGradient>
    <clipPath id="clippath">
      <rect class="cls-4" x="0" y="30.94" width="393.44" height="126.97" rx="25.1" ry="25.1" transform="translate(393.44 188.85) rotate(-180)"/>
    </clipPath>
    <linearGradient id="linear-gradient-5" x1="675.08" y1="29.88" x2="675.08" y2="69.41" gradientTransform="translate(988.8) rotate(-180) scale(1 -1)" xlink:href="#linear-gradient-4"/>
    <clipPath id="clippath-1">
      <rect class="cls-4" x="36.08" y="30.94" width="393.44" height="126.97" rx="25.1" ry="25.1" transform="translate(465.6 188.85) rotate(-180)"/>
    </clipPath>
    <linearGradient id="linear-gradient-6" x1="714.93" y1="28.46" x2="714.93" y2="67.98" gradientTransform="translate(988.8) rotate(-180) scale(1 -1)" xlink:href="#linear-gradient-4"/>
    <clipPath id="clippath-2">
      <rect class="cls-4" x="65.35" y="30.94" width="393.44" height="126.97" rx="25.1" ry="25.1" transform="translate(524.14 188.85) rotate(-180)"/>
    </clipPath>
    <linearGradient id="linear-gradient-7" x1="760.66" y1="24.35" x2="760.66" y2="63.88" gradientTransform="translate(988.8) rotate(-180) scale(1 -1)" xlink:href="#linear-gradient-4"/>
  </defs>
  <g id="Layer_1-2" data-name="Layer 1">
    <g>
      <rect class="cls-1" x="82.37" y="12.14" width="58.63" height="58.63" transform="translate(62.03 -66.83) rotate(45)"/>
      <rect class="cls-5" x="150.52" y="12.14" width="58.63" height="58.63" transform="translate(81.99 -115.02) rotate(45)"/>
      <rect class="cls-7" x="61.83" y="30.94" width="289.36" height="181.33" rx="25.73" ry="25.73"/>
      <path class="cls-8" d="M350.96,140.01c17.42,11.11,27.04,30.66,24.81,50.22-2.15,18.88-15.41,38.49-32.44,41.78-30.92,5.96-53.5-45.89-79.78-38.22-19.39,5.66-19.19,37.41-36.44,38.67-11.95.87-25.64-13.37-26.67-26.67-1.73-22.39,31.91-49.17,60.22-46.67,37.89,3.35,59.42,58.51,75.78,51.11,5.17-2.34,12.69-12.22,14.22-23.03.26-1.84.31-3.41.29-4.53v-42.67Z"/>
      <g class="cls-12">
        <path class="cls-3" d="M314.19,19.06l19.29,26.45-23.96,30.81c.31-10.89.62-21.78.93-32.68-5.5-6.74-11-13.49-16.49-20.23l20.23-4.36Z"/>
      </g>
      <g class="cls-11">
        <path class="cls-2" d="M274.34,20.93l19.29,26.45-23.96,30.81c.31-10.89.62-21.78.93-32.68-5.5-6.74-11-13.49-16.49-20.23l20.23-4.36Z"/>
      </g>
      <g class="cls-10">
        <path class="cls-6" d="M228.61,20.93l19.29,26.45-23.96,30.81c.31-10.89.62-21.78.93-32.68-5.5-6.74-11-13.49-16.49-20.23l20.23-4.36Z"/>
      </g>
    </g>
    <g>
      <path class="cls-9" d="M101.7,111.05l52.24-52.24c5.77-5.77,15.12-5.77,20.89,0h0c5.77,5.77,5.77,15.12,0,20.89l-52.24,52.24c-5.77,5.77-15.12,5.77-20.89,0h0c-5.77-5.77-5.77-15.12,0-20.89Z"/>
      <path class="cls-9" d="M122.63,111.28l52.24,52.24c5.77,5.77,5.77,15.12,0,20.89h0c-5.77,5.77-15.12,5.77-20.89,0l-52.24-52.24c-5.77-5.77-5.77-15.12,0-20.89h0c5.77-5.77,15.12-5.77,20.89,0Z"/>
      <path class="cls-9" d="M118.52,106.85h169.89c11.73,0,21.24,6.61,21.24,14.77h0c0,8.16-9.51,14.77-21.24,14.77H118.52c-11.73,0-21.24-6.61-21.24-14.77h0c0-8.16,9.51-14.77,21.24-14.77Z"/>
    </g>
  </g>
</svg>