<?xml version="1.0" encoding="UTF-8"?>
<svg id="Layer_2" data-name="Layer 2" xmlns="http://www.w3.org/2000/svg" xmlns:xlink="http://www.w3.org/1999/xlink" viewBox="0 0 587.04 226.24">
  <defs>
    <style>
      .cls-1 {
        fill: url(#linear-gradient);
      }

      .cls-1, .cls-2, .cls-3, .cls-4, .cls-5, .cls-6, .cls-7, .cls-8, .cls-9 {
        stroke-width: 0px;
      }

      .cls-2 {
        fill: url(#linear-gradient-6);
      }

      .cls-10 {
        clip-path: url(#clippath-2);
      }

      .cls-3 {
        fill: #b36e36;
      }

      .cls-4 {
        fill: url(#linear-gradient-5);
      }

      .cls-5 {
        fill: none;
      }

      .cls-11 {
        clip-path: url(#clippath-1);
      }

      .cls-6 {
        fill: url(#linear-gradient-2);
      }

      .cls-7 {
        fill: url(#linear-gradient-7);
      }

      .cls-8 {
        fill: url(#linear-gradient-3);
      }

      .cls-12 {
        clip-path: url(#clippath);
      }

      .cls-9 {
        fill: url(#linear-gradient-4);
      }
    </style>
    <linearGradient id="linear-gradient" x1="466.93" y1="75.11" x2="466.93" y2="-7.81" gradientTransform="translate(107.44 342.31) rotate(-45)" gradientUnits="userSpaceOnUse">
      <stop offset="0" stop-color="#938a8a"/>
      <stop offset=".02" stop-color="#8f8787"/>
      <stop offset=".23" stop-color="#787373"/>
      <stop offset=".45" stop-color="#676565"/>
      <stop offset=".69" stop-color="#5e5d5d"/>
      <stop offset="1" stop-color="#5b5b5b"/>
    </linearGradient>
    <linearGradient id="linear-gradient-2" x1="535.08" y1="71.98" x2="535.08" y2="-10.94" gradientTransform="translate(127.4 390.5) rotate(-45)" xlink:href="#linear-gradient"/>
    <linearGradient id="linear-gradient-3" x1="306.09" y1="248.65" x2="306.09" y2="15.73" gradientUnits="userSpaceOnUse">
      <stop offset="0" stop-color="#938a8a"/>
      <stop offset=".08" stop-color="#807a7a"/>
      <stop offset=".18" stop-color="#6f6c6c"/>
      <stop offset=".31" stop-color="#636262"/>
      <stop offset=".49" stop-color="#5c5c5c"/>
      <stop offset="1" stop-color="#5b5b5b"/>
    </linearGradient>
    <linearGradient id="linear-gradient-4" x1="0" y1="180" x2="175.71" y2="180" gradientUnits="userSpaceOnUse">
      <stop offset="0" stop-color="#665d5d"/>
      <stop offset=".21" stop-color="#4f4a4a"/>
      <stop offset=".43" stop-color="#3e3c3c"/>
      <stop offset=".68" stop-color="#353434"/>
      <stop offset="1" stop-color="#323232"/>
    </linearGradient>
    <clipPath id="clippath">
      <rect class="cls-5" x="25.13" y="30.94" width="561.91" height="181.33" rx="35.85" ry="35.85"/>
    </clipPath>
    <linearGradient id="linear-gradient-5" x1="138.98" y1="29.43" x2="138.98" y2="85.88" xlink:href="#linear-gradient-4"/>
    <clipPath id="clippath-1">
      <rect class="cls-5" x="25.13" y="30.94" width="561.91" height="181.33" rx="35.85" ry="35.85"/>
    </clipPath>
    <linearGradient id="linear-gradient-6" x1="247.43" y1="27.4" x2="247.43" y2="83.85" xlink:href="#linear-gradient-4"/>
    <clipPath id="clippath-2">
      <rect class="cls-5" x="25.13" y="30.94" width="561.91" height="181.33" rx="35.85" ry="35.85"/>
    </clipPath>
    <linearGradient id="linear-gradient-7" x1="354.54" y1="21.53" x2="354.54" y2="77.98" xlink:href="#linear-gradient-4"/>
  </defs>
  <g id="Layer_1-2" data-name="Layer 1">
    <g>
      <rect class="cls-1" x="437.61" y="12.14" width="58.63" height="58.63" transform="translate(166.08 -318.03) rotate(45)"/>
      <rect class="cls-6" x="505.76" y="12.14" width="58.63" height="58.63" transform="translate(186.04 -366.21) rotate(45)"/>
      <rect class="cls-8" x="25.13" y="30.94" width="561.91" height="181.33" rx="35.85" ry="35.85"/>
      <path class="cls-3" d="M25.13,133.75C7.71,144.87-1.91,164.42.32,183.98c2.15,18.88,15.41,38.49,32.44,41.78,30.92,5.96,53.5-45.89,79.78-38.22,19.39,5.66,19.19,37.41,36.44,38.67,11.95.87,25.64-13.37,26.67-26.67,1.73-22.39-31.91-49.17-60.22-46.67-37.89,3.35-59.42,58.51-75.78,51.11-5.17-2.34-12.69-12.22-14.22-23.03-.26-1.84-.31-3.41-.29-4.53v-42.67Z"/>
      <path class="cls-9" d="M25.13,133.75C7.71,144.87-1.91,164.42.32,183.98c2.15,18.88,15.41,38.49,32.44,41.78,30.92,5.96,53.5-45.89,79.78-38.22,19.39,5.66,19.19,37.41,36.44,38.67,11.95.87,25.64-13.37,26.67-26.67,1.73-22.39-31.91-49.17-60.22-46.67-37.89,3.35-59.42,58.51-75.78,51.11-5.17-2.34-12.69-12.22-14.22-23.03-.26-1.84-.31-3.41-.29-4.53v-42.67Z"/>
      <g class="cls-12">
        <path class="cls-4" d="M138.32,13.98l-27.56,37.78,34.22,44c-.44-15.56-.89-31.11-1.33-46.67,7.85-9.63,15.7-19.26,23.56-28.89l-28.89-6.22Z"/>
      </g>
      <g class="cls-11">
        <path class="cls-2" d="M246.76,16.64l-27.56,37.78,34.22,44c-.44-15.56-.89-31.11-1.33-46.67,7.85-9.63,15.7-19.26,23.56-28.89l-28.89-6.22Z"/>
      </g>
      <g class="cls-10">
        <path class="cls-7" d="M353.87,16.64l-27.56,37.78,34.22,44c-.44-15.56-.89-31.11-1.33-46.67,7.85-9.63,15.7-19.26,23.56-28.89l-28.89-6.22Z"/>
      </g>
    </g>
  </g>
</svg>