<svg xmlns:inkscape="http://www.inkscape.org/namespaces/inkscape" xmlns:sodipodi="http://sodipodi.sourceforge.net/DTD/sodipodi-0.dtd" xmlns="http://www.w3.org/2000/svg" xmlns:svg="http://www.w3.org/2000/svg" viewBox="0 0 8.46667 10.583324375" version="1.1" x="0px" y="0px"><g transform="translate(-110.41692,-114.44801)"><path style="" d="M 115.97265 115.51358 C 115.53748 115.51358 115.17994 115.87165 115.17994 116.30681 L 115.17994 121.07034 C 115.17994 121.5055 115.53748 121.86306 115.97265 121.86306 L 116.50182 121.86306 C 116.93699 121.86306 117.29711 121.5055 117.29712 121.07034 L 117.29712 116.30681 C 117.29712 115.87165 116.93699 115.51358 116.50182 115.51358 L 115.97265 115.51358 z " stroke-width="0.529167" stroke-linecap="round" stroke-linejoin="round"/><path style="color:#000000;" d="M 112.79869 115.51358 C 112.36353 115.51358 112.0039 115.87165 112.0039 116.30681 L 112.0039 121.07034 C 112.0039 121.5055 112.36353 121.86306 112.79869 121.86306 L 113.32837 121.86306 C 113.76353 121.86306 114.12109 121.5055 114.12109 121.07034 L 114.12109 116.30681 C 114.12109 115.87165 113.76353 115.51358 113.32837 115.51358 L 112.79869 115.51358 z " fill="#000000" stroke-linecap="round" stroke-linejoin="round"/></g><text x="0" y="23.4666595" fill="#000000" font-size="5px" font-weight="bold" font-family="'Helvetica Neue', Helvetica, Arial-Unicode, Arial, Sans-serif">Created by Meko</text><text x="0" y="28.4666595" fill="#000000" font-size="5px" font-weight="bold" font-family="'Helvetica Neue', Helvetica, Arial-Unicode, Arial, Sans-serif">from the Noun Project</text></svg>