<?xml version="1.0" encoding="UTF-8"?>
<svg id="Layer_2" data-name="Layer 2" xmlns="http://www.w3.org/2000/svg" xmlns:xlink="http://www.w3.org/1999/xlink" viewBox="0 0 275.44 346.82">
  <defs>
    <style>
      .cls-1 {
        fill: #332926;
      }

      .cls-1, .cls-2, .cls-3, .cls-4, .cls-5 {
        stroke-width: 0px;
      }

      .cls-6 {
        clip-path: url(#clippath-2);
      }

      .cls-7 {
        stroke: #fff;
        stroke-miterlimit: 10;
        stroke-width: 20px;
      }

      .cls-7, .cls-5 {
        fill: #fff;
      }

      .cls-2 {
        fill: none;
      }

      .cls-8 {
        clip-path: url(#clippath-1);
      }

      .cls-9 {
        clip-path: url(#clippath-4);
      }

      .cls-3 {
        fill: #f4e4e4;
      }

      .cls-4 {
        fill: #ed9a32;
      }

      .cls-10 {
        clip-path: url(#clippath);
      }

      .cls-11 {
        clip-path: url(#clippath-3);
      }

      .cls-12 {
        clip-path: url(#clippath-5);
      }
    </style>
    <clipPath id="clippath">
      <path class="cls-2" d="M64.69,142.03c2.04,21.81-7.31,41.26-20.88,43.43-13.57,2.17-26.22-13.75-28.25-35.56s7.31-41.26,20.88-43.43c13.57-2.17,26.22,13.75,28.25,35.56Z"/>
    </clipPath>
    <clipPath id="clippath-1">
      <path class="cls-2" d="M189.24,91.06c-3.68,21.52-17.48,36.07-30.83,32.51s-21.19-23.9-17.52-45.42c3.68-21.52,17.48-36.07,30.83-32.51,13.35,3.57,21.19,23.9,17.52,45.42Z"/>
    </clipPath>
    <clipPath id="clippath-2">
      <path class="cls-2" d="M241,155.16c-3.68,21.52-17.48,36.07-30.83,32.51-13.35-3.57-21.19-23.9-17.52-45.42s17.48-36.07,30.83-32.51c13.35,3.57,21.19,23.9,17.52,45.42Z"/>
    </clipPath>
    <clipPath id="clippath-3">
      <path class="cls-2" d="M220.09,240.43c-.47,30.63-20.39,55.16-44.48,54.78-8.29-.13-16-3.19-22.52-8.4-8.82,5.03-18.62,7.76-28.9,7.6s-19.22-2.96-27.63-7.88c-6.5,4.64-14,7.23-21.96,7.11-24.09-.37-43.23-25.5-42.76-56.13.35-22.92,11.59-42.41,27.31-50.63,7.57-38.54,35.23-66.95,67.73-66.45,32.21.5,58.79,29.24,65.46,67.48,16.54,8.06,28.11,28.62,27.74,52.51Z"/>
    </clipPath>
    <clipPath id="clippath-4">
      <path class="cls-2" d="M220.09,240.43c-.47,30.63-20.39,55.16-44.48,54.78-8.29-.13-16-3.19-22.52-8.4-8.82,5.03-18.62,7.76-28.9,7.6s-19.22-2.96-27.63-7.88c-6.5,4.64-14,7.23-21.96,7.11-24.09-.37-43.23-25.5-42.76-56.13.35-22.92,11.59-42.41,27.31-50.63,7.57-38.54,35.23-66.95,67.73-66.45,32.21.5,58.79,29.24,65.46,67.48,16.54,8.06,28.11,28.62,27.74,52.51Z"/>
    </clipPath>
    <clipPath id="clippath-5">
      <path class="cls-2" d="M241,155.16c-3.68,21.52-17.48,36.07-30.83,32.51-13.35-3.57-21.19-23.9-17.52-45.42,3.68-21.52,17.48-36.07,30.83-32.51,13.35,3.57,21.19,23.9,17.52,45.42Z"/>
    </clipPath>
  </defs>
  <g id="Layer_1-2" data-name="Layer 1">
    <g>
      <g>
        <path class="cls-7" d="M220.33,240.41c-.47,30.63-20.39,55.16-44.48,54.78-8.29-.13-16-3.19-22.52-8.4-8.82,5.03-18.62,7.76-28.9,7.6-9.88-.15-19.22-2.96-27.63-7.88-6.5,4.64-14,7.23-21.96,7.11-24.09-.37-43.23-25.5-42.76-56.13.35-22.92,11.59-42.41,27.31-50.63,7.57-38.54,35.23-66.95,67.73-66.45,32.21.5,58.79,29.24,65.46,67.48,16.54,8.06,28.11,28.62,27.74,52.51Z"/>
        <path class="cls-5" d="M246.65,157c-5.3,23.99-22.87,39.75-39.24,35.21s-25.35-27.67-20.05-51.66c5.3-23.99,22.87-39.75,39.24-35.21s25.35,27.67,20.05,51.66Z"/>
        <path class="cls-5" d="M195.07,91.06c-3.85,24.26-20.45,41.05-37.06,37.5-16.62-3.55-26.96-26.1-23.11-50.36,3.85-24.26,20.45-41.05,37.06-37.5s26.96,26.1,23.11,50.36Z"/>
        <path class="cls-5" d="M127.73,82.95c.06,24.57-13.65,43.78-30.62,42.92-16.97-.86-30.78-21.47-30.84-46.04-.06-24.57,13.65-43.78,30.62-42.92,16.97.86,30.78,21.47,30.84,46.04Z"/>
        <path class="cls-5" d="M70.77,147.55c.06,24.57-13.65,43.78-30.62,42.92-16.97-.86-30.78-21.47-30.84-46.04-.06-24.57,13.65-43.78,30.62-42.92,16.97.86,30.78,21.47,30.84,46.04Z"/>
      </g>
      <g>
        <path class="cls-3" d="M220.09,240.43c-.47,30.63-20.39,55.16-44.48,54.78-8.29-.13-16-3.19-22.52-8.4-8.82,5.03-18.62,7.76-28.9,7.6s-19.22-2.96-27.63-7.88c-6.5,4.64-14,7.23-21.96,7.11-24.09-.37-43.23-25.5-42.76-56.13.35-22.92,11.59-42.41,27.31-50.63,7.57-38.54,35.23-66.95,67.73-66.45,32.21.5,58.79,29.24,65.46,67.48,16.54,8.06,28.11,28.62,27.74,52.51Z"/>
        <path class="cls-3" d="M64.69,142.03c2.04,21.81-7.31,41.26-20.88,43.43-13.57,2.17-26.22-13.75-28.25-35.56-2.04-21.81,7.31-41.26,20.88-43.43,13.57-2.17,26.22,13.75,28.25,35.56Z"/>
        <g class="cls-10">
          <path class="cls-1" d="M46.35,135.01c-12.97,15.81-9.75,28.34-22.47,66.51C10.16,242.74-.11,243.68.4,265.39c.79,33.82,18.91,67.48,31.14,65.3,9.29-1.66,8.58-31.19,24.46-37.58,4.75-1.91,8.55-.84,12.79-5.35,5.88-6.25,6.34-16.57,6.75-20.92,2.56-26.75,23.43-33.7,32.13-58.48,11.08-31.56-.95-82.37-22.93-90.87-17.87-6.91-37.26,16.13-38.39,17.51Z"/>
        </g>
        <path class="cls-3" d="M121.65,77.51c2.04,21.81-7.31,41.26-20.88,43.43s-26.22-13.75-28.25-35.56c-2.04-21.81,7.31-41.26,20.88-43.43,13.57-2.17,26.22,13.75,28.25,35.56Z"/>
        <g class="cls-8">
          <path class="cls-1" d="M200.27,41.18c-8.53,10.27-24.92-9.36-41.78-.65-17.14,8.85-24.01,41.43-23.49,63.87.79,33.82,18.91,67.48,31.14,65.3,11.61-2.07,11.83-35.36,24.46-37.58,12.83-2.26,17.91,31.2,36.65,35.6,18.92,4.45,45.57-22.2,48.07-49.94.73-8.11-.66-15.66-39.23-76.06C217.97,13.38,207.01-2.58,202.74.34c-5.19,3.56,6.19,30.41-2.47,40.84Z"/>
        </g>
        <g class="cls-6">
          <path class="cls-4" d="M97.84,345.05c-2.58-43.24-1.26-93.78,19.42-107.15,18.17-11.75,37.67,14.01,53.87.83,21.17-17.22.41-71.42,21.37-114.65,12.92-26.64,38.36-42.28,73.62-48.94l-11.24,132.97-42.03,138.72-115-1.78Z"/>
        </g>
        <g class="cls-11">
          <path class="cls-4" d="M97.46,340.2c-2.58-43.24-1.26-93.78,19.42-107.15,18.17-11.75,37.67,14.01,53.87.83,21.17-17.22.41-71.42,21.37-114.65,12.92-26.64,38.36-42.28,73.62-48.94l-11.24,132.97-42.03,138.72-115-1.78Z"/>
        </g>
        <g class="cls-9">
          <path class="cls-1" d="M45.97,130.16c-12.97,15.81-9.75,28.34-22.47,66.51C9.78,237.89-.49,238.83.02,260.55c.79,33.82,18.91,67.48,31.14,65.3,9.29-1.66,8.58-31.19,24.46-37.58,4.75-1.91,8.55-.84,12.79-5.35,5.88-6.25,6.34-16.57,6.75-20.92,2.56-26.75,23.43-33.7,32.13-58.48,11.08-31.56-.95-82.37-22.93-90.87-17.87-6.91-37.26,16.13-38.39,17.51Z"/>
        </g>
        <g class="cls-12">
          <path class="cls-1" d="M200.27,41.18c-8.53,10.27-24.92-9.36-41.78-.65-17.14,8.85-24.01,41.43-23.49,63.87.79,33.82,18.91,67.48,31.14,65.3,11.61-2.07,11.83-35.36,24.46-37.58,12.83-2.26,17.91,31.2,36.65,35.6,18.92,4.45,45.57-22.2,48.07-49.94.73-8.11-.66-15.66-39.23-76.06C217.97,13.38,207.01-2.58,202.74.34c-5.19,3.56,6.19,30.41-2.47,40.84Z"/>
        </g>
      </g>
    </g>
  </g>
</svg>