<?xml version="1.0" encoding="UTF-8"?>
<svg id="Layer_2" data-name="Layer 2" xmlns="http://www.w3.org/2000/svg" viewBox="0 0 238.86 268.19">
  <defs>
    <style>
      .cls-1 {
        fill: #332926;
      }

      .cls-1, .cls-2 {
        stroke-width: 0px;
      }

      .cls-3 {
        stroke: #fff;
        stroke-miterlimit: 10;
        stroke-width: 20px;
      }

      .cls-3, .cls-2 {
        fill: #fff;
      }
    </style>
  </defs>
  <g id="Layer_1-2" data-name="Layer 1">
    <g>
      <g>
        <path class="cls-3" d="M211.17,203.34c-.43,30.63-20.3,55.19-44.39,54.85-8.29-.12-16-3.17-22.53-8.36-8.82,5.04-18.61,7.79-28.89,7.65s-19.23-2.93-27.64-7.83c-6.49,4.65-13.99,7.26-21.95,7.14-24.09-.33-43.28-25.43-42.85-56.07.32-22.92,11.52-42.43,27.23-50.67,7.5-38.56,35.12-67,67.63-66.55s58.84,29.14,65.57,67.37c16.55,8.03,28.16,28.57,27.82,52.47Z"/>
        <path class="cls-2" d="M237.36,119.88c-5.26,24-22.8,39.79-39.18,35.27-16.38-4.52-25.4-27.63-20.14-51.62s22.8-39.79,39.18-35.27c16.38,4.52,25.4,27.63,20.14,51.62Z"/>
        <path class="cls-2" d="M185.67,54.02c-3.81,24.27-20.38,41.08-37,37.55-16.62-3.53-27-26.06-23.19-50.33C129.3,16.98,145.86.17,162.49,3.7c16.62,3.53,27,26.06,23.19,50.33Z"/>
        <path class="cls-2" d="M118.32,46.02c.1,24.57-13.58,43.8-30.55,42.97-16.97-.83-30.81-21.43-30.91-45.99S70.43-.81,87.41.03c16.97.83,30.81,21.43,30.91,45.99Z"/>
        <path class="cls-2" d="M61.46,110.71c.1,24.57-13.58,43.8-30.55,42.97C13.94,152.84.1,132.25,0,107.68c-.1-24.57,13.58-43.8,30.55-42.97,16.97.83,30.81,21.43,30.91,45.99Z"/>
      </g>
      <path class="cls-1" d="M55.17,104.55c2.67,21.75-6.11,41.46-19.61,44.02-13.5,2.57-26.61-12.98-29.27-34.73-2.67-21.75,6.11-41.46,19.61-44.02s26.61,12.98,29.27,34.73Z"/>
      <path class="cls-1" d="M112.03,39.86c2.67,21.75-6.11,41.46-19.61,44.02-13.5,2.57-26.61-12.98-29.27-34.73s6.11-41.46,19.61-44.02c13.5-2.57,26.61,12.98,29.27,34.73Z"/>
      <path class="cls-1" d="M179.93,53.39c-3.05,21.62-16.43,36.56-29.88,33.39-13.45-3.18-21.88-23.28-18.83-44.89s16.43-36.56,29.88-33.39c13.45,3.18,21.88,23.28,18.83,44.89Z"/>
      <path class="cls-1" d="M232.05,117.46c-3.05,21.62-16.43,36.56-29.88,33.39-13.45-3.18-21.88-23.28-18.83-44.89,3.05-21.62,16.43-36.56,29.88-33.39,13.45,3.18,21.88,23.28,18.83,44.89Z"/>
      <path class="cls-1" d="M211.02,199.58c.41,30.63-18.78,55.72-42.87,56.05-8.29.11-16.08-2.73-22.75-7.74-8.67,5.28-18.39,8.3-28.67,8.44-9.88.13-19.3-2.4-27.84-7.07-6.36,4.82-13.78,7.64-21.74,7.74-24.09.33-43.96-24.24-44.37-54.87-.31-22.92,10.35-42.73,25.83-51.4,6.44-38.75,33.27-67.94,65.77-68.38,32.22-.44,59.61,27.52,67.39,65.55,16.77,7.58,28.93,27.79,29.25,51.68Z"/>
    </g>
  </g>
</svg>