<?xml version="1.0" encoding="UTF-8"?>
<svg id="Layer_2" data-name="Layer 2" xmlns="http://www.w3.org/2000/svg" viewBox="0 0 238.8 267.19">
  <defs>
    <style>
      .cls-1 {
        fill: #edb9b9;
      }

      .cls-1, .cls-2 {
        stroke-width: 0px;
      }

      .cls-3 {
        stroke: #fff;
        stroke-miterlimit: 10;
        stroke-width: 20px;
      }

      .cls-3, .cls-2 {
        fill: #fff;
      }
    </style>
  </defs>
  <g id="Layer_1-2" data-name="Layer 1">
    <g>
      <g>
        <path class="cls-3" d="M213.28,200.49c.26,30.63-19.06,55.63-43.15,55.84-8.29.07-16.07-2.81-22.71-7.85-8.7,5.24-18.43,8.2-28.71,8.29s-19.29-2.5-27.81-7.21c-6.39,4.79-13.82,7.57-21.78,7.63-24.09.21-43.83-24.46-44.1-55.09-.2-22.92,10.57-42.68,26.08-51.27,6.64-38.71,33.61-67.77,66.12-68.05,32.22-.27,59.47,27.82,67.06,65.89,16.73,7.66,28.79,27.94,28.99,51.83Z"/>
        <path class="cls-2" d="M237.59,116.47c-4.72,24.11-21.91,40.29-38.38,36.14s-26.01-27.05-21.29-51.16c4.72-24.11,21.91-40.29,38.38-36.14s26.01,27.05,21.29,51.16Z"/>
        <path class="cls-2" d="M184.45,51.79c-3.27,24.35-19.46,41.53-36.15,38.37s-27.58-25.45-24.31-49.79c3.27-24.35,19.46-41.53,36.15-38.37,16.7,3.15,27.58,25.45,24.31,49.79Z"/>
        <path class="cls-2" d="M116.93,45.29c.65,24.56-12.59,44.1-29.58,43.64-16.99-.45-31.28-20.73-31.93-45.29C54.76,19.09,68.01-.45,84.99,0c16.99.45,31.28,20.73,31.93,45.29Z"/>
        <path class="cls-2" d="M61.53,111.24c.65,24.56-12.59,44.1-29.58,43.64C14.97,154.43.67,134.16.02,109.6s12.59-44.1,29.58-43.64c16.99.45,31.28,20.73,31.93,45.29Z"/>
      </g>
      <path class="cls-1" d="M55.3,106.17c2.66,21.75-6.12,41.45-19.62,44.02-13.5,2.56-26.6-12.99-29.27-34.73-2.66-21.75,6.12-41.45,19.62-44.02,13.5-2.56,26.6,12.99,29.27,34.73Z"/>
      <path class="cls-1" d="M110.38,40.03c2.66,21.75-6.12,41.45-19.62,44.02-13.5,2.56-26.6-12.99-29.27-34.73-2.66-21.75,6.12-41.45,19.62-44.02,13.5-2.56,26.6,12.99,29.27,34.73Z"/>
      <path class="cls-1" d="M178.33,51.63c-3.05,21.62-16.43,36.56-29.88,33.38-13.45-3.18-21.87-23.28-18.82-44.9,3.05-21.62,16.43-36.56,29.88-33.38,13.45,3.18,21.87,23.28,18.82,44.9Z"/>
      <path class="cls-1" d="M231.91,114.2c-3.05,21.62-16.43,36.56-29.88,33.38-13.45-3.18-21.87-23.28-18.82-44.9,3.05-21.62,16.43-36.56,29.88-33.38,13.45,3.18,21.87,23.28,18.82,44.9Z"/>
      <path class="cls-1" d="M213.51,200.14c.41,30.63-18.79,55.72-42.88,56.04-8.29.11-16.08-2.73-22.75-7.74-8.68,5.28-18.39,8.29-28.67,8.43-9.88.13-19.3-2.4-27.84-7.08-6.36,4.82-13.78,7.63-21.74,7.74-24.09.32-43.95-24.24-44.36-54.88-.31-22.92,10.36-42.73,25.84-51.4,6.45-38.75,33.28-67.94,65.79-68.37,32.22-.43,59.61,27.53,67.38,65.56,16.77,7.58,28.93,27.79,29.25,51.69Z"/>
    </g>
  </g>
</svg>